<svg width="24" height="12" viewBox="0 0 24 12" fill="none" xmlns="http://www.w3.org/2000/svg">
<path d="M17.4332 6.83322C17.4332 6.83343 17.4332 6.83364 17.433 6.83378C15.598 8.50656 13.7636 10.1787 11.9291 11.8508C11.6621 12.0938 11.3962 12.0362 11.2412 11.7051C11.0769 11.3541 11.1277 10.8733 11.3584 10.6124C11.4009 10.5647 11.4475 10.5263 11.4926 10.4846C15.1301 7.16799 18.7676 3.85208 22.4055 0.536833C22.4641 0.48319 22.5232 0.426236 22.5865 0.389811C22.8239 0.253387 23.0727 0.409679 23.1862 0.757363C23.2972 1.0971 23.2261 1.51697 23.0177 1.73949C22.9747 1.78585 22.9281 1.82426 22.883 1.86532C21.0666 3.52088 19.2503 5.17711 17.4335 6.83267C17.4333 6.83281 17.4332 6.83301 17.4332 6.83322Z" fill="white"/>
<path d="M5.80551 6.83389C5.80551 6.8341 5.80559 6.8343 5.80575 6.83444C7.64021 8.50656 9.47468 10.1793 11.3097 11.8508C11.5766 12.0938 11.8426 12.0362 11.9975 11.7051C12.1619 11.3541 12.1111 10.8733 11.8804 10.6124C11.8379 10.5647 11.7912 10.5263 11.7461 10.4846C8.10867 7.16866 4.4712 3.85274 0.83321 0.537495C0.774633 0.483851 0.715538 0.426898 0.652296 0.390473C0.414878 0.254049 0.166056 0.410341 0.0525303 0.758025C-0.058403 1.09776 0.0126152 1.51763 0.221003 1.74015C0.264029 1.78651 0.310684 1.82492 0.355782 1.86598C2.1721 3.52154 3.98842 5.17777 5.80526 6.83333C5.80542 6.83347 5.80551 6.83368 5.80551 6.83389Z" fill="white"/>
</svg>
