<svg width="649" height="114" viewBox="0 0 649 114" fill="none" xmlns="http://www.w3.org/2000/svg">
<g clip-path="url(#clip0_1390_2654)">
<path d="M85.7801 52.5256C85.5078 48.4407 84.4185 44.3558 82.2399 40.8156L63.7217 8.40876C62.3601 5.95782 61.2708 3.23456 60.7261 0.511292L59.9091 1.87292C55.2796 9.77039 55.2796 19.8465 59.9091 27.7439L74.8871 53.6149C79.5166 61.5124 79.5166 71.5885 74.8871 79.486L74.0701 80.8476C73.5255 78.1243 72.4361 75.4011 71.0745 72.9501L57.4582 49.2577L48.7437 34.0074C47.3821 31.5565 46.2928 28.8332 45.7481 26.11L44.9312 27.4716C40.3016 35.3691 40.3016 45.1728 44.9312 53.3426L59.9091 79.2136C64.5387 87.1111 64.5387 97.1872 59.9091 105.085L59.0922 106.446C58.5475 103.723 57.4582 101 56.0966 98.5488L37.306 66.142C34.8551 61.7847 33.7658 56.8829 33.7658 51.981C13.886 57.1552 -0.00268555 68.3206 -0.00268555 81.1199C-0.00268555 99.0935 26.6853 113.527 59.6368 113.527C92.5883 113.527 119.276 99.0935 119.276 81.1199C119.549 68.8652 105.932 57.6998 85.7801 52.5256ZM142.152 107.808C142.424 103.178 142.969 100.183 144.33 96.3702C150.594 99.3658 158.764 100.727 164.755 100.727C175.103 100.727 181.094 97.4595 181.094 90.6513C181.094 84.1155 176.737 81.1199 166.389 76.4904L160.67 74.3118C150.049 69.6822 142.969 63.691 142.969 51.981C142.969 39.1816 151.955 31.0119 169.929 31.0119C177.282 31.0119 184.09 32.1012 190.353 34.2798C190.081 38.637 189.264 42.1772 188.175 45.4452C182.184 43.2665 174.831 42.1772 169.657 42.1772C159.853 42.1772 155.496 45.9898 155.496 51.981C155.496 57.6998 159.853 61.2401 167.75 64.508L173.742 66.9589C187.903 72.9501 193.894 79.486 193.894 90.379C193.894 103.178 184.09 112.165 165.027 112.165C156.04 112.165 148.415 110.803 142.152 107.808ZM254.078 54.1596V110.259H242.64L242.096 103.451C238.828 108.353 234.198 111.62 226.301 111.62C211.595 111.62 201.519 100.727 201.519 81.9369C201.519 62.3294 212.14 50.8917 232.836 50.8917C241.006 51.164 247.814 51.981 254.078 54.1596ZM241.823 97.4595V62.3294C239.372 61.7847 236.377 61.7847 232.836 61.7847C220.037 61.7847 214.046 69.6822 214.046 82.2092C214.046 93.6469 218.675 101.817 229.568 101.817C234.743 101.544 238.555 99.9104 241.823 97.4595ZM317.258 72.6778V110.259H305.003V74.8564C305.003 65.8696 302.007 61.7847 289.753 61.7847C286.757 61.7847 283.489 62.0571 279.949 62.6017V110.259H267.694V54.1596C275.592 52.2533 284.306 50.8917 290.025 50.8917C310.722 51.164 317.258 59.0615 317.258 72.6778ZM351.571 101.272C355.111 101.272 358.651 100.727 361.102 99.6381C360.83 102.906 360.285 106.719 359.741 109.987C356.473 111.348 352.66 111.893 349.392 111.893C337.41 111.893 329.785 106.446 329.785 92.8299V33.7351C333.597 32.3735 338.227 31.8288 342.039 31.8288V53.0703H361.647C361.374 56.8829 361.102 60.4231 360.557 63.691H342.039V91.196C342.039 98.2765 345.58 101.272 351.571 101.272ZM417.746 54.1596V110.259H406.308L405.764 103.451C402.496 108.353 397.866 111.62 389.969 111.62C375.263 111.62 365.187 100.727 365.187 81.9369C365.187 62.3294 375.808 50.8917 396.505 50.8917C404.674 51.164 411.21 51.981 417.746 54.1596ZM405.219 97.4595V62.3294C402.768 61.7847 399.772 61.7847 396.232 61.7847C383.433 61.7847 377.442 69.6822 377.442 82.2092C377.442 93.6469 382.071 101.817 392.964 101.817C398.139 101.544 402.223 99.9104 405.219 97.4595ZM480.926 72.6778V110.259H468.399V74.8564C468.399 65.8696 465.403 61.7847 453.148 61.7847C450.153 61.7847 446.885 62.0571 443.345 62.6017V110.259H431.09V54.1596C438.988 52.2533 447.702 50.8917 453.421 50.8917C474.118 51.164 480.926 59.0615 480.926 72.6778ZM543.289 31.8288V110.259H531.851L531.306 103.178C528.038 108.353 523.409 111.62 515.239 111.62C500.533 111.62 490.457 100.727 490.457 81.9369C490.457 62.3294 501.078 50.8917 521.775 50.8917C525.043 50.8917 528.038 51.164 531.034 51.7087V33.1905C534.846 32.1012 539.204 31.8288 543.289 31.8288ZM531.034 97.4595V62.874C527.766 62.3294 524.498 61.7847 521.23 61.7847C508.975 61.7847 503.257 69.4099 503.257 82.2092C503.257 93.6469 507.886 101.817 518.779 101.817C523.681 101.544 527.766 99.9104 531.034 97.4595ZM605.379 86.2941H565.892C567.526 96.3702 573.244 101 584.41 101C591.218 101 598.026 99.6381 604.017 96.6425C603.473 99.9104 602.928 104.268 602.111 107.808C596.392 110.259 590.673 111.348 583.865 111.348C563.168 111.348 553.365 99.9104 553.365 80.8476C553.365 64.2357 560.99 50.8917 580.597 50.8917C598.298 50.8917 605.924 62.3294 605.924 76.4904C605.924 80.3029 605.924 83.0262 605.379 86.2941ZM565.892 75.9457H593.669C593.669 66.6866 588.767 61.2401 580.325 61.2401C571.338 61.5124 566.709 66.4143 565.892 75.9457ZM648.679 51.7087C648.679 55.5212 648.134 59.8785 647.59 62.3294C644.594 62.0571 641.871 61.7847 638.33 61.7847C635.335 61.7847 632.339 62.0571 629.344 62.3294V110.259H617.089V54.1596C622.263 52.2533 631.25 50.8917 638.058 50.8917C641.598 51.164 645.956 51.164 648.679 51.7087Z" fill="white"/>
</g>
<defs>
<clipPath id="clip0_1390_2654">
<rect width="648.682" height="113.015" fill="white" transform="translate(0 0.515625)"/>
</clipPath>
</defs>
</svg>
