<svg width="24" height="12" viewBox="0 0 24 12" fill="none" xmlns="http://www.w3.org/2000/svg">
<path d="M5.80504 5.16678C5.80504 5.16656 5.80513 5.16636 5.80528 5.16622C7.64027 3.49344 9.47473 1.82132 11.3092 0.149198C11.5762 -0.0938495 11.8421 -0.0362333 11.9971 0.294894C12.1614 0.64589 12.1106 1.12669 11.8799 1.38762C11.8374 1.4353 11.7908 1.47371 11.7457 1.51543C8.1082 4.83201 4.47073 8.14792 0.832745 11.4632C0.774168 11.5168 0.715073 11.5738 0.65183 11.6102C0.414413 11.7466 0.16559 11.5903 0.0520653 11.2426C-0.0588679 10.9029 0.0121501 10.483 0.220539 10.2605C0.263564 10.2142 0.310218 10.1757 0.355317 10.1347C2.17164 8.47912 3.98796 6.82289 5.8048 5.16733C5.80495 5.16719 5.80504 5.16699 5.80504 5.16678Z" fill="black"/>
<path d="M17.4328 5.16611C17.4328 5.1659 17.4327 5.1657 17.4325 5.16556C15.5981 3.49344 13.7636 1.82066 11.9286 0.149198C11.6617 -0.0938495 11.3957 -0.0362333 11.2407 0.294894C11.0764 0.64589 11.1272 1.12669 11.3579 1.38762C11.4004 1.4353 11.447 1.47371 11.4921 1.51543C15.1296 4.83134 18.7671 8.14725 22.4051 11.4625C22.4636 11.5161 22.5227 11.5731 22.586 11.6095C22.8234 11.7459 23.0722 11.5897 23.1858 11.242C23.2967 10.9022 23.2257 10.4824 23.0173 10.2598C22.9743 10.2135 22.9276 10.1751 22.8825 10.134C21.0662 8.47846 19.2499 6.82223 17.433 5.16667C17.4329 5.16652 17.4328 5.16632 17.4328 5.16611Z" fill="black"/>
</svg>
